<svg width="32" height="32" viewBox="0 0 32 32" fill="none" xmlns="http://www.w3.org/2000/svg">
<path d="M26 14.2733C25.9198 14.0117 25.7568 13.7832 25.5356 13.6221C25.3144 13.461 25.0469 13.376 24.7733 13.38H18.0133V11.14L24.3467 11.3667H24.3733C24.6311 11.3652 24.8778 11.2623 25.06 11.08C25.2423 10.8978 25.3453 10.651 25.3467 10.3933C25.3472 10.2637 25.3213 10.1353 25.2707 10.016C25.2201 9.89667 25.1458 9.78885 25.0523 9.69909C24.9588 9.60933 24.8481 9.53949 24.7268 9.4938C24.6055 9.44812 24.4762 9.42754 24.3467 9.43332L18.0133 9.65998V7.20665L24.3867 6.31332C24.6172 6.28015 24.8279 6.16465 24.9798 5.98818C25.1318 5.81171 25.2147 5.58619 25.2133 5.35332C25.2155 5.29964 25.211 5.24589 25.2 5.19332C25.1786 5.06437 25.131 4.94119 25.0601 4.8314C24.9892 4.72161 24.8965 4.62755 24.7877 4.55506C24.679 4.48256 24.5565 4.43316 24.4279 4.40992C24.2993 4.38669 24.1672 4.39011 24.04 4.41998L17.9067 5.72665C17.7545 5.2795 17.449 4.90061 17.0443 4.65711C16.6396 4.41361 16.1618 4.32121 15.6954 4.39627C15.2291 4.47133 14.8044 4.70901 14.4965 5.06721C14.1886 5.42541 14.0175 5.88101 14.0133 6.35332V6.55332L12.4933 6.87332C12.3081 6.45521 11.9847 6.11355 11.5774 5.90569C11.1701 5.69784 10.7037 5.63645 10.2565 5.73184C9.80925 5.82723 9.40846 6.07358 9.1214 6.42953C8.83433 6.78549 8.67848 7.22937 8.68 7.68665V7.69998L7.08 8.03332C7.00332 8.05319 6.93546 8.09808 6.88716 8.16087C6.83886 8.22366 6.81288 8.30077 6.81334 8.37998V8.43332C6.82871 8.52111 6.8777 8.59946 6.94989 8.65173C7.02208 8.70401 7.11179 8.7261 7.2 8.71332L8.68 8.51332V9.99998L7.01334 10.0533C6.92406 10.0577 6.83983 10.0961 6.77788 10.1605C6.71592 10.2249 6.68091 10.3106 6.68 10.4C6.67857 10.4901 6.71281 10.5771 6.77525 10.642C6.83769 10.7069 6.92327 10.7446 7.01334 10.7467L8.68 10.8V13.3867H7.23334C6.95881 13.3868 6.69155 13.4749 6.47078 13.6381C6.25 13.8013 6.08735 14.0309 6.00667 14.2933C5.41822 16.1891 5.25532 18.1913 5.52959 20.1572C5.80385 22.1231 6.50852 24.0043 7.59334 25.6667L8.40667 26.8933C8.55649 27.1283 8.76358 27.3213 9.00847 27.4542C9.25336 27.5872 9.52803 27.6557 9.80667 27.6533H22.2067C22.4832 27.654 22.7554 27.5847 22.9978 27.4518C23.2403 27.3189 23.4452 27.1268 23.5933 26.8933L24.4067 25.6667C25.4941 24.0018 26.2007 22.1174 26.4762 20.148C26.7516 18.1786 26.589 16.1727 26 14.2733ZM15.3467 6.35332C15.3467 6.17651 15.4169 6.00694 15.5419 5.88191C15.667 5.75689 15.8365 5.68665 16.0133 5.68665C16.1901 5.68665 16.3597 5.75689 16.4847 5.88191C16.6098 6.00694 16.68 6.17651 16.68 6.35332V13.34H15.3467V6.35332ZM12.68 7.95332L14.0133 7.76665V9.80665L12.68 9.84665V7.95332ZM12.68 10.9533L14.0133 10.9933V13.38H12.68V10.9533ZM10.0133 7.68665C10.0133 7.50984 10.0836 7.34027 10.2086 7.21525C10.3336 7.09022 10.5032 7.01998 10.68 7.01998C10.8568 7.01998 11.0264 7.09022 11.1514 7.21525C11.2764 7.34027 11.3467 7.50984 11.3467 7.68665V13.34H10.0133V7.68665ZM23.2933 24.9267L22.4933 26.1667C22.4616 26.2115 22.4196 26.2481 22.3709 26.2736C22.3223 26.2991 22.2683 26.3127 22.2133 26.3133H9.81334C9.75788 26.3157 9.70276 26.3035 9.65358 26.2777C9.60441 26.2519 9.56292 26.2136 9.53334 26.1667L8.72 24.9267C7.74857 23.4329 7.11312 21.746 6.85759 19.9826C6.60205 18.2192 6.73253 16.4214 7.24 14.7133L24.7333 14.6733C25.2626 16.3845 25.4073 18.1915 25.1572 19.9651C24.9071 21.7387 24.2684 23.4352 23.2867 24.9333L23.2933 24.9267Z" fill="black"/>
</svg>
