<svg width="32" height="32" viewBox="0 0 32 32" fill="none" xmlns="http://www.w3.org/2000/svg">
<path d="M27.7427 17.916L27.7293 17.8627C25.1474 11.7093 20.2477 6.81921 14.0893 4.24935C13.8265 4.14168 13.5445 4.08848 13.2605 4.09298C12.9766 4.09747 12.6964 4.15956 12.4371 4.2755C12.1778 4.39143 11.9448 4.55879 11.7521 4.76744C11.5594 4.97609 11.411 5.22168 11.316 5.48935L4.22266 25.076C4.10711 25.3937 4.06973 25.7346 4.11366 26.0698C4.1576 26.405 4.28156 26.7247 4.47508 27.0019C4.66861 27.2791 4.926 27.5057 5.22553 27.6625C5.52506 27.8193 5.85791 27.9016 6.19599 27.9027C6.44099 27.903 6.68432 27.8624 6.91599 27.7827L26.516 20.6894C26.7843 20.5921 27.0301 20.4416 27.2386 20.2468C27.4471 20.052 27.6141 19.8171 27.7293 19.556C27.8436 19.2981 27.9037 19.0195 27.906 18.7374C27.9083 18.4553 27.8527 18.1758 27.7427 17.916ZM18.436 21.8894C18.5154 21.9716 18.605 22.0433 18.7027 22.1027L6.46266 26.5334C6.3252 26.5802 6.17735 26.5876 6.03593 26.5546C5.89451 26.5216 5.76518 26.4495 5.66266 26.3467C5.55349 26.2455 5.47731 26.1138 5.44402 25.9688C5.41072 25.8237 5.42186 25.672 5.47599 25.5334L8.66266 16.7334C8.72204 16.831 8.79374 16.9206 8.87599 17C9.32863 17.4527 9.94253 17.7069 10.5827 17.7069C11.2228 17.7069 11.8367 17.4527 12.2893 17C12.742 16.5474 12.9962 15.9335 12.9962 15.2934C12.9962 14.6532 12.742 14.0393 12.2893 13.5867C11.9984 13.2945 11.6364 13.0831 11.239 12.9733C10.8415 12.8634 10.4224 12.8588 10.0227 12.96L11.476 8.98668C15.0954 10.6389 18.2275 13.1968 20.5693 16.4134C19.7658 16.4551 19.006 16.7922 18.436 17.36C18.1383 17.6572 17.9021 18.0102 17.7409 18.3988C17.5798 18.7874 17.4968 19.204 17.4968 19.6247C17.4968 20.0454 17.5798 20.4619 17.7409 20.8505C17.9021 21.2391 18.1383 21.5921 18.436 21.8894ZM26.5027 19.0227C26.4166 19.2133 26.2583 19.362 26.0627 19.436L24.3027 20.0627C24.156 19.756 24.0093 19.4627 23.8627 19.1694C23.7027 18.8494 23.5293 18.5294 23.356 18.2227C22.9427 17.4894 22.4893 16.7827 22.0227 16.116C19.4714 12.4624 15.9855 9.56133 11.9293 7.71602L12.5693 5.94268C12.6039 5.84465 12.6585 5.75489 12.7296 5.67913C12.8008 5.60338 12.887 5.54328 12.9827 5.50268C13.0773 5.45401 13.183 5.43102 13.2893 5.43602C13.4033 5.44012 13.5159 5.46263 13.6227 5.50268C19.4507 7.94164 24.0831 12.5788 26.516 18.4094V18.436C26.5534 18.5297 26.5715 18.6299 26.5693 18.7307C26.567 18.8315 26.5443 18.9308 26.5027 19.0227Z" fill="black"/>
<path d="M10.4467 23.4187C11.2383 23.4187 11.88 22.7769 11.88 21.9853C11.88 21.1937 11.2383 20.552 10.4467 20.552C9.65506 20.552 9.01334 21.1937 9.01334 21.9853C9.01334 22.7769 9.65506 23.4187 10.4467 23.4187Z" fill="black"/>
</svg>
