<svg width="32" height="32" viewBox="0 0 32 32" fill="none" xmlns="http://www.w3.org/2000/svg">
<path d="M20.3293 18.448C20.7913 17.9613 21.1284 17.3698 21.3119 16.7242C21.4953 16.0787 21.5196 15.3983 21.3827 14.7414C21.3271 14.478 21.197 14.2363 21.0079 14.0448C20.8188 13.8533 20.5786 13.7202 20.316 13.6614C20.7839 13.1754 21.1257 12.5823 21.3116 11.9339C21.4975 11.2855 21.5219 10.6014 21.3827 9.94136C21.3262 9.67268 21.1927 9.42624 20.9986 9.23211C20.8044 9.03797 20.558 8.90452 20.2893 8.84803C19.3706 8.65814 18.415 8.77525 17.5693 9.18136C18.2655 8.42979 18.6568 7.44579 18.6667 6.42136C18.6603 5.73943 18.4853 5.06966 18.1573 4.47177C17.8293 3.87388 17.3584 3.36644 16.7867 2.99469C16.5591 2.8396 16.2907 2.75554 16.0154 2.75316C15.74 2.75079 15.4702 2.83021 15.24 2.98136C14.6634 3.35335 14.1877 3.86202 13.8551 4.46215C13.5225 5.06228 13.3432 5.73528 13.3333 6.42136C13.3408 7.44802 13.7361 8.43391 14.44 9.18136C13.596 8.76967 12.6385 8.65233 11.72 8.84803C11.4504 8.90243 11.2028 9.0352 11.0083 9.22969C10.8138 9.42418 10.6811 9.67174 10.6267 9.94136C10.4857 10.6003 10.508 11.2837 10.6916 11.9321C10.8752 12.5805 11.2145 13.1741 11.68 13.6614C11.419 13.7206 11.1807 13.8541 10.9938 14.0458C10.8069 14.2374 10.6794 14.4789 10.6267 14.7414C10.4874 15.3972 10.5093 16.0771 10.6904 16.7227C10.8716 17.3683 11.2066 17.9603 11.6667 18.448C11.4085 18.515 11.1743 18.6529 10.9905 18.8461C10.8067 19.0393 10.6806 19.2802 10.6267 19.5414C10.4916 20.1377 10.4937 20.757 10.6327 21.3524C10.7717 21.9479 11.044 22.5041 11.4291 22.979C11.8142 23.454 12.3021 23.8354 12.8559 24.0944C13.4098 24.3535 14.0153 24.4835 14.6267 24.4747C14.864 24.4784 15.1009 24.456 15.3333 24.408V28.608C15.3333 28.7848 15.4036 28.9544 15.5286 29.0794C15.6536 29.2045 15.8232 29.2747 16 29.2747C16.1768 29.2747 16.3464 29.2045 16.4714 29.0794C16.5964 28.9544 16.6667 28.7848 16.6667 28.608V24.408C16.9035 24.4566 17.1449 24.479 17.3867 24.4747C17.9224 24.4791 18.4538 24.3777 18.9503 24.1763C19.4468 23.975 19.8986 23.6777 20.28 23.3014C20.7588 22.8135 21.1102 22.2154 21.3032 21.5597C21.4962 20.9039 21.5249 20.2108 21.3867 19.5414C21.3296 19.2788 21.2004 19.0374 21.0136 18.8442C20.8268 18.6511 20.5898 18.5138 20.3293 18.448ZM15.2227 23.088C14.7686 23.1855 14.2974 23.1696 13.8509 23.0417C13.4044 22.9138 12.9963 22.6778 12.6627 22.3547C12.3317 22.0159 12.0949 21.5967 11.9757 21.1383C11.8564 20.68 11.8588 20.1985 11.9827 19.7414C12.1895 19.7043 12.3992 19.6865 12.6093 19.688C12.9681 19.6812 13.3245 19.7474 13.6569 19.8826C13.9892 20.0179 14.2906 20.2193 14.5427 20.4747C14.8771 20.8112 15.1162 21.2304 15.2357 21.6895C15.3551 22.1486 15.3506 22.6312 15.2227 23.088ZM15.2227 18.288C14.7686 18.3865 14.2972 18.371 13.8505 18.2431C13.4038 18.1151 12.9958 17.8786 12.6627 17.5547C12.3318 17.2186 12.0949 16.8017 11.9756 16.3455C11.8563 15.8892 11.8587 15.4097 11.9827 14.9547C12.188 14.9069 12.3985 14.8845 12.6093 14.888C12.9681 14.8812 13.3245 14.9474 13.6569 15.0826C13.9892 15.2179 14.2906 15.4193 14.5427 15.6747C14.8771 16.0112 15.1162 16.4304 15.2357 16.8895C15.3551 17.3486 15.3506 17.8312 15.2227 18.288ZM15.2227 13.488C14.7686 13.5865 14.2972 13.571 13.8505 13.4431C13.4038 13.3151 12.9958 13.0786 12.6627 12.7547C12.3318 12.4186 12.0949 12.0017 11.9756 11.5455C11.8563 11.0892 11.8587 10.6097 11.9827 10.1547C12.1891 10.1134 12.3988 10.0911 12.6093 10.088C12.9681 10.0812 13.3245 10.1474 13.6569 10.2826C13.9892 10.4179 14.2906 10.6193 14.5427 10.8747C14.8771 11.2112 15.1162 11.6304 15.2357 12.0895C15.3551 12.5486 15.3506 13.0312 15.2227 13.488ZM15.9693 8.75469C15.5749 8.50514 15.2492 8.16097 15.0217 7.75346C14.7942 7.34595 14.6721 6.88804 14.6667 6.42136C14.6708 5.94632 14.8015 5.48098 15.0452 5.07321C15.2889 4.66544 15.6369 4.32998 16.0533 4.10136C16.4416 4.35232 16.7618 4.69554 16.9851 5.10037C17.2085 5.5052 17.3281 5.95903 17.3333 6.42136C17.3272 6.89504 17.1983 7.35904 16.9592 7.76801C16.7201 8.17698 16.3791 8.51695 15.9693 8.75469ZM19.3427 22.3547C19.0017 22.6822 18.5823 22.9167 18.1247 23.0357C17.6672 23.1548 17.1867 23.1544 16.7293 23.0347C16.6881 22.8373 16.6658 22.6364 16.6627 22.4347V22.408C16.6575 21.6807 16.9403 20.9809 17.4493 20.4614C17.9474 19.9724 18.618 19.6993 19.316 19.7014C19.5723 19.7003 19.8276 19.7317 20.076 19.7947C20.1711 20.2489 20.1541 20.7194 20.0263 21.1655C19.8985 21.6116 19.6639 22.0198 19.3427 22.3547ZM19.3427 17.5547C19.0035 17.885 18.5842 18.1213 18.126 18.2405C17.6678 18.3598 17.1865 18.3577 16.7293 18.2347C16.6881 18.0373 16.6658 17.8364 16.6627 17.6347V17.608C16.6589 17.2497 16.7265 16.8942 16.8615 16.5622C16.9966 16.2303 17.1964 15.9286 17.4493 15.6747C17.6934 15.4282 17.9843 15.2328 18.3048 15.1C18.6253 14.9672 18.9691 14.8997 19.316 14.9014C19.5718 14.9069 19.8264 14.9382 20.076 14.9947C20.1711 15.4489 20.1541 15.9194 20.0263 16.3655C19.8985 16.8116 19.6639 17.2198 19.3427 17.5547ZM19.3427 12.7547C19.0052 13.0876 18.5859 13.3257 18.1272 13.4451C17.6684 13.5644 17.1863 13.5609 16.7293 13.4347C16.6881 13.2373 16.6658 13.0364 16.6627 12.8347V12.808C16.6589 12.4497 16.7265 12.0942 16.8615 11.7622C16.9966 11.4303 17.1964 11.1286 17.4493 10.8747C17.696 10.6288 17.9895 10.4349 18.3124 10.3044C18.6353 10.1739 18.9811 10.1094 19.3293 10.1147C19.5811 10.1145 19.832 10.1458 20.076 10.208C20.1712 10.6601 20.1541 11.1287 20.0263 11.5726C19.8984 12.0166 19.6637 12.4225 19.3427 12.7547Z" fill="black"/>
</svg>
