<svg width="32" height="32" viewBox="0 0 32 32" fill="none" xmlns="http://www.w3.org/2000/svg">
<path d="M24.372 3.38664C24.186 3.18312 23.9594 3.02098 23.7067 2.91072C23.454 2.80047 23.181 2.74456 22.9053 2.74664H9.092C8.81851 2.74601 8.54791 2.80264 8.29762 2.91286C8.04732 3.02308 7.82286 3.18447 7.63867 3.38664C7.45028 3.58494 7.30456 3.81978 7.21053 4.07664C7.11651 4.33349 7.07616 4.6069 7.092 4.87997L8.50534 26.1333C8.56256 26.9765 8.93664 27.7667 9.55247 28.3455C10.1683 28.9242 10.9803 29.2485 11.8253 29.2533H20.172C21.0185 29.2491 21.8323 28.9253 22.4503 28.3468C23.0684 27.7683 23.4452 26.9777 23.5053 26.1333L24.9053 4.87997C24.9229 4.60785 24.8847 4.335 24.793 4.07819C24.7013 3.82138 24.558 3.58604 24.372 3.38664ZM22.172 26.04C22.1389 26.5484 21.914 27.0254 21.5427 27.3743C21.1715 27.7233 20.6815 27.9183 20.172 27.92H11.8253C11.3179 27.9156 10.831 27.7193 10.4624 27.3705C10.0938 27.0218 9.871 26.5464 9.83867 26.04L8.98534 13.2133C9.54618 13.11 10.0782 12.8871 10.5453 12.56C10.993 12.2082 11.5496 12.0242 12.1187 12.04C12.6918 12.0245 13.2526 12.2083 13.7053 12.56C14.3807 13.0288 15.1832 13.28 16.0053 13.28C16.8275 13.28 17.63 13.0288 18.3053 12.56C18.7592 12.2103 19.3192 12.0268 19.892 12.04C20.4611 12.0242 21.0177 12.2082 21.4653 12.56C21.9289 12.8847 22.456 13.1074 23.012 13.2133L22.172 26.04ZM23.1053 11.88C22.7764 11.7853 22.4655 11.6366 22.1853 11.44C21.5133 10.9629 20.7095 10.7066 19.8853 10.7066C19.0612 10.7066 18.2574 10.9629 17.5853 11.44C17.133 11.7814 16.5786 11.96 16.012 11.9466C15.4417 11.9574 14.8839 11.7793 14.4253 11.44C13.7584 10.9478 12.9474 10.69 12.1187 10.7066C11.2943 10.692 10.4882 10.9498 9.82534 11.44C9.54039 11.6367 9.22509 11.7853 8.892 11.88L8.42534 4.78664C8.41854 4.69577 8.43173 4.60451 8.46398 4.51928C8.49623 4.43405 8.54675 4.35692 8.612 4.2933C8.67258 4.22608 8.74662 4.17234 8.82931 4.13559C8.91201 4.09884 9.00151 4.07989 9.092 4.07997H22.9053C22.9976 4.08113 23.0887 4.10058 23.1734 4.1372C23.2581 4.17382 23.3346 4.22688 23.3987 4.2933C23.4621 4.35768 23.5106 4.43529 23.5405 4.52057C23.5705 4.60586 23.5813 4.69672 23.572 4.78664L23.1053 11.88Z" fill="black"/>
</svg>
