<svg width="32" height="32" viewBox="0 0 32 32" fill="none" xmlns="http://www.w3.org/2000/svg">
<path d="M18.4278 5.02082C18.0822 5.07118 17.8569 5.16471 17.6345 5.34457C17.5173 5.4381 17.3671 5.54242 17.301 5.5748C17.2229 5.61437 17.0576 5.78704 16.8322 6.06402C16.5317 6.43094 16.4626 6.53526 16.3605 6.79426C16.2223 7.1432 16.057 7.43457 15.9488 7.51731C15.7685 7.6576 15.6333 7.58926 14.9572 6.99931C14.81 6.86981 14.6207 6.72592 14.5396 6.68275C14.4584 6.63599 14.3322 6.53526 14.2541 6.45972C14.179 6.38418 14.0228 6.26187 13.9056 6.19352C13.7914 6.12158 13.6021 5.97409 13.4849 5.86258C13.3707 5.75106 13.1994 5.61797 13.1093 5.5712C13.0192 5.52084 12.8629 5.40573 12.7637 5.3158C12.5865 5.14673 12.5835 5.14673 12.3551 5.14673C12.1327 5.14673 12.1237 5.15032 11.9795 5.29061C11.8984 5.36975 11.8263 5.44889 11.8202 5.46328C11.8022 5.51724 11.4476 5.7043 11.3665 5.7043C11.3245 5.7043 11.2163 5.67912 11.1261 5.65034C11.018 5.61437 10.8166 5.59638 10.5402 5.59638C10.0414 5.59638 9.66881 5.67912 9.46749 5.8374C9.39538 5.89136 9.2241 6.00287 9.08288 6.08561C8.94165 6.16834 8.78541 6.28346 8.73733 6.33741C8.68625 6.39137 8.58108 6.51008 8.49695 6.60001C8.30764 6.80865 7.89298 7.46695 7.81786 7.67199C7.72772 7.9274 7.66762 8.47778 7.67664 8.967C7.68565 9.38069 7.68265 9.41306 7.61955 9.4886L7.55044 9.56774L7.47832 9.48501C7.43626 9.43824 7.37316 9.29435 7.3371 9.16485C7.29804 9.02456 7.24094 8.90225 7.19587 8.85549C7.04263 8.708 6.94047 8.56411 6.89539 8.43821C6.81427 8.20439 6.38158 7.61444 6.04504 7.2763C5.93987 7.17557 5.81367 7.04247 5.76259 6.98852C5.71451 6.93456 5.61836 6.84822 5.55225 6.79426C5.48615 6.7439 5.37798 6.65757 5.31187 6.60361C4.91223 6.27986 4.64781 6.25828 4.52762 6.53886C4.47353 6.66476 4.48555 6.96693 4.56368 7.32666C4.62077 7.60365 4.61776 7.84826 4.54865 8.11805C4.51861 8.24396 4.48255 8.42741 4.47354 8.52094C4.44649 8.77994 4.33531 9.19363 4.27221 9.26917C4.19109 9.3663 4.11597 9.3555 3.83652 9.19363C3.6983 9.11449 3.52402 9.03535 3.4489 9.01377C3.37378 8.99218 3.28965 8.9634 3.2596 8.94182C3.23256 8.92384 3.10636 8.85909 2.98316 8.79433C2.85996 8.73318 2.73977 8.66483 2.72174 8.64685C2.67667 8.60368 2.33413 8.52094 2.01261 8.47418C1.88341 8.45619 1.6911 8.40583 1.58593 8.36266C1.35457 8.26914 1.23437 8.30151 1.09014 8.49576C1.01803 8.59289 1 8.65404 1 8.77635C1 8.94542 1 8.94902 1.34255 9.33032C1.41767 9.41666 1.48077 9.51019 1.48077 9.53537C1.48077 9.67566 1.67608 10.3088 1.80228 10.5786C1.85336 10.6829 1.94951 11.2656 2.0036 11.8016C2.07872 12.5175 2.09975 12.6326 2.21393 12.8592C2.27403 12.9743 2.32211 13.0787 2.32211 13.093C2.32211 13.1038 2.35516 13.1974 2.39122 13.3017C2.43028 13.406 2.49338 13.5859 2.52944 13.6974C2.5685 13.8089 2.62559 13.9312 2.65864 13.9672C2.6947 14.0031 2.79085 14.1434 2.87799 14.2837C3.17847 14.773 3.23857 15.0643 3.07931 15.2478C3.03424 15.3018 2.98016 15.3449 2.95912 15.3449C2.94109 15.3449 2.84494 15.4384 2.74578 15.5536C2.58052 15.7478 2.56549 15.7766 2.54146 15.978C2.5084 16.2658 2.51742 16.9889 2.55949 17.3558C2.59554 17.658 2.6346 17.8162 2.80287 18.3666C2.85395 18.5357 2.91405 18.7515 2.93508 18.8522C2.98016 19.0717 3.12138 19.3954 3.22354 19.5177C3.27462 19.5789 3.41284 19.8559 3.47895 20.0285C3.52402 20.1436 3.56909 20.2372 3.58111 20.2372C3.59614 20.2372 3.68628 20.3667 3.78243 20.525C3.98375 20.8523 4.68087 21.6905 4.87017 21.8344C4.93928 21.8883 5.07149 22.0106 5.16464 22.1113C5.25778 22.2121 5.38399 22.3236 5.44408 22.356C5.50418 22.3883 5.6424 22.4962 5.74757 22.597C5.85574 22.6977 6.06607 22.8596 6.21331 22.9531C6.36355 23.0502 6.53782 23.1797 6.60393 23.2409C6.67004 23.3056 6.88638 23.4351 7.0847 23.5287C7.28301 23.6258 7.49335 23.7481 7.55344 23.8056C7.66161 23.91 7.95909 24.0539 8.20849 24.1222C8.2806 24.1438 8.41582 24.2013 8.50897 24.2553C9.00175 24.5251 9.15499 24.5898 9.4735 24.6654C9.99634 24.7877 10.2878 24.9676 10.414 25.2481C10.4711 25.3812 10.4831 25.4676 10.4951 25.9928C10.5102 26.5503 10.5132 26.5935 10.5823 26.705C10.6243 26.7662 10.7235 26.8597 10.8076 26.9101L10.9579 27H15.4801H20.0053L20.1615 26.9137C20.474 26.7374 20.5041 26.6583 20.5071 26.0215C20.5071 25.5719 20.5161 25.4892 20.5762 25.3309C20.7144 24.9568 20.9127 24.8129 21.4836 24.6762C21.8652 24.5862 22.0786 24.4963 22.3971 24.3021C22.4872 24.2445 22.6375 24.1726 22.7276 24.1438C23.0732 24.0359 23.3136 23.9244 23.4157 23.8344C23.5479 23.7121 23.6922 23.6258 24.0227 23.4747C24.1669 23.4099 24.3322 23.302 24.3953 23.2373C24.4554 23.1689 24.5335 23.1078 24.5635 23.0934C24.5936 23.0826 24.6176 23.0574 24.6176 23.0394C24.6176 23.0214 24.6387 23.0071 24.6657 23.0071C24.7378 23.0071 25.0233 22.8056 25.2336 22.6114C25.3328 22.5178 25.483 22.3991 25.5671 22.3452C25.6513 22.2912 25.7685 22.1941 25.8226 22.1293C25.8796 22.0646 26.0058 21.9423 26.102 21.8559C26.3995 21.5969 27.3069 20.4566 27.4752 20.1293C27.5022 20.0753 27.5353 19.9962 27.5473 19.9494C27.5593 19.9026 27.6435 19.748 27.7306 19.6041C27.8898 19.3487 28.0431 18.9961 28.0431 18.8918C28.0431 18.863 28.0822 18.7227 28.1302 18.5752C28.1783 18.4314 28.2534 18.2083 28.2955 18.0788C28.4217 17.6939 28.5148 16.6975 28.4638 16.2982C28.3947 15.7838 28.3947 15.6939 28.4698 15.5967C28.5088 15.5464 28.641 15.4241 28.7642 15.3269C28.8874 15.2262 28.9956 15.1399 29.0046 15.1291C29.0136 15.1183 29.1218 15.0284 29.245 14.9312C29.6416 14.6147 30.1825 13.9204 30.4559 13.3736C30.5521 13.1794 30.6693 12.9635 30.7174 12.8916C30.8736 12.6614 31.0058 11.8772 30.9998 11.2441C30.9938 10.8232 30.9097 10.1721 30.8315 9.93106C30.7053 9.54976 30.1134 8.708 29.8309 8.51015C29.7648 8.46339 29.5966 8.33389 29.4553 8.22237C29.1398 7.97776 28.9235 7.86624 28.4998 7.73674C28.4127 7.71156 28.2384 7.63602 28.1092 7.57127C27.8868 7.45616 27.8628 7.45256 27.3911 7.43817C26.8562 7.42378 26.7631 7.44537 26.2643 7.71516C25.9728 7.86984 25.8766 7.88423 25.7234 7.7943C25.6513 7.75473 25.5401 7.6576 25.474 7.58206C25.3508 7.44177 25.1525 7.28709 25.0924 7.28709C25.0744 7.28709 24.9842 7.23313 24.8911 7.17198C24.5125 6.90938 24.3352 6.84463 23.9205 6.82664C23.3857 6.80506 23.0792 6.8806 22.8749 7.08924C22.8508 7.11442 22.7457 7.17198 22.6405 7.21874C22.5173 7.2763 22.3851 7.37702 22.2559 7.51012C21.9524 7.83387 21.8202 7.7943 21.694 7.34824C21.6669 7.25471 21.6068 7.11442 21.5588 7.04248C21.5107 6.97053 21.4296 6.80506 21.3755 6.67915C21.2523 6.39137 21.2583 6.39857 20.9518 6.03165C20.6723 5.69351 20.6002 5.62516 20.3508 5.47408C20.2607 5.41652 20.1345 5.32299 20.0714 5.26543C19.9903 5.18629 19.8851 5.13593 19.6958 5.08917C19.3983 5.01003 18.7313 4.97406 18.4278 5.02082ZM19.221 5.90215C19.3472 5.93093 19.5275 5.99208 19.6237 6.04244C19.7168 6.0928 19.828 6.14316 19.8701 6.15755C20.1105 6.23669 20.6333 6.82664 20.7835 7.19356C20.9638 7.62163 20.8797 7.88423 20.5612 7.87704C20.4049 7.87704 20.3088 7.80149 20.1645 7.58206C20.1225 7.51731 19.9933 7.38062 19.8821 7.27989C19.7679 7.17917 19.6267 7.04967 19.5696 6.99571C19.4314 6.86261 19.185 6.80506 18.8334 6.83024C18.4127 6.85902 18.2535 6.96333 17.8088 7.49932C17.6555 7.68638 17.5985 7.78351 17.5293 8.00294C17.325 8.63605 17.2709 8.71879 17.1147 8.67203C17.0726 8.66123 16.9735 8.5713 16.8923 8.47418C16.7571 8.3123 16.7451 8.28352 16.7451 8.12884C16.7451 7.97056 16.9404 7.26191 17.0305 7.10003C17.0516 7.06406 17.1898 6.877 17.34 6.68275C17.5804 6.36979 17.6375 6.31583 17.8178 6.2295C17.929 6.17554 18.0612 6.10359 18.1093 6.07122C18.2865 5.9597 18.6231 5.85179 18.8094 5.84819C18.9115 5.84819 19.0978 5.87337 19.221 5.90215ZM12.6616 6.28346C12.7247 6.30864 12.8689 6.41296 12.9861 6.51728C13.1033 6.62519 13.2024 6.71153 13.2115 6.71153C13.2385 6.71153 13.6441 7.02089 13.7583 7.13241C13.8244 7.19356 13.9597 7.29069 14.0558 7.34464C14.155 7.3986 14.2932 7.49932 14.3653 7.56767C14.5125 7.71516 14.9422 8.04251 14.9813 8.04251C14.9963 8.04251 15.0925 8.12165 15.1946 8.21518C15.2938 8.3123 15.456 8.43461 15.5522 8.48857C15.6453 8.54253 15.7415 8.60728 15.7625 8.62886C15.8617 8.74757 16.2553 9.04974 16.4656 9.17924C16.5948 9.25838 16.9464 9.64688 17.0005 9.77279C17.0666 9.92387 17.0546 10.003 16.9524 10.1433C16.7751 10.3879 16.5648 10.3412 16.2223 9.99222C16.1231 9.89149 15.9729 9.76559 15.8827 9.71163C15.7926 9.66127 15.6123 9.52098 15.4771 9.40227C15.3449 9.28356 15.1435 9.13247 15.0354 9.06772C14.9242 8.99938 14.801 8.90945 14.7589 8.86268C14.6838 8.77994 14.4434 8.5821 14.4194 8.5821C14.3863 8.5821 13.9927 8.26914 13.9086 8.17921C13.7974 8.0569 13.4609 7.89862 13.3196 7.89862C13.1874 7.89862 13.0041 8.00294 12.8809 8.13963C12.7187 8.3195 12.6736 8.55692 12.6736 9.19363C12.6736 9.81595 12.7187 10.0606 12.917 10.5282C12.9741 10.6577 13.0192 10.78 13.0192 10.8052C13.0192 10.8951 13.2415 11.4023 13.3617 11.5786C13.4308 11.6793 13.4999 11.7908 13.5119 11.8196C13.6291 12.1218 14.179 12.8628 14.5065 13.1686C14.5907 13.2477 14.7139 13.37 14.783 13.4456C14.8521 13.5175 14.9903 13.629 15.0925 13.6902C15.3388 13.8413 15.423 13.9492 15.423 14.1291C15.423 14.5571 15.0834 14.8917 14.7709 14.7766C14.5185 14.683 13.2024 13.0139 13.0432 12.5822C13.0131 12.4995 12.923 12.3304 12.8419 12.2045C12.6916 11.9707 12.5805 11.7081 12.4963 11.4023C12.4693 11.3016 12.3942 11.1254 12.3311 11.0066C12.1838 10.7333 12.1297 10.5282 12.0696 10.021C12.0456 9.79437 12.0035 9.50299 11.9765 9.37349C11.9074 9.02096 11.9074 7.87344 11.9735 7.61084C12.0035 7.50292 12.0456 7.24392 12.0726 7.03528C12.1628 6.29065 12.277 6.14676 12.6616 6.28346ZM10.9819 6.51368C11.1562 6.67196 11.2073 6.97772 11.0841 7.12521C10.9849 7.24392 10.8767 7.2691 10.6664 7.22593C10.39 7.17198 10.0023 7.29428 9.63576 7.54969C9.52759 7.62523 9.37134 7.84466 9.15499 8.22957C8.87855 8.72599 8.84851 8.80513 8.82747 9.12888C8.79742 9.56774 8.62315 9.79797 8.44286 9.63969C8.33469 9.54616 8.30163 9.40946 8.30163 9.08931C8.30464 8.63606 8.34671 8.35547 8.43986 8.16841C8.48793 8.07488 8.56606 7.91661 8.61113 7.81229C8.74033 7.5353 8.88456 7.32666 9.10692 7.09284C9.32627 6.86621 9.45547 6.78347 9.89417 6.60361C10.2878 6.44173 10.3539 6.42735 10.6454 6.43454C10.8497 6.44173 10.9158 6.45612 10.9819 6.51368ZM24.212 7.84826C24.3622 7.89862 24.5455 7.95617 24.6206 7.98136C24.7859 8.03172 24.858 8.08927 25.0984 8.34828C25.2997 8.56051 25.486 8.69721 25.6903 8.77994C25.8226 8.8339 25.8286 8.8339 26.0689 8.7116C26.6008 8.43821 27.2258 8.34468 27.8177 8.45259C28.2835 8.53533 28.608 8.63965 28.7222 8.74397C28.7763 8.79433 28.9175 8.89506 29.0347 8.967C29.263 9.11089 29.2751 9.11809 29.4734 9.27277C29.6657 9.42025 29.9511 9.89149 30.1705 10.4167C30.3418 10.8232 30.3688 11.5534 30.2366 12.0211C30.2035 12.1362 30.1585 12.2549 30.1344 12.2837C30.1104 12.316 30.0293 12.4851 29.9511 12.665C29.873 12.8412 29.7678 13.0535 29.7138 13.1326C29.5455 13.3952 29.0647 13.9996 28.9415 14.1075C28.8754 14.165 28.8033 14.2298 28.7853 14.2478C28.7642 14.2693 28.6741 14.3413 28.584 14.4096C28.4938 14.4744 28.3676 14.5787 28.3045 14.6363C28.1152 14.8125 27.7546 14.8845 27.0515 14.8917C26.4986 14.8953 26.4596 14.8917 26.3394 14.8161C26.132 14.683 26.081 14.5751 26.099 14.3125C26.114 14.0643 26.09 13.9995 25.9367 13.8665C25.8736 13.8161 25.7715 13.7801 25.6152 13.7585C25.3087 13.719 24.9722 13.5931 24.87 13.4815C24.8009 13.4024 24.7919 13.37 24.8069 13.2333C24.825 13.0283 24.9181 12.9096 25.0804 12.8808C25.1465 12.8664 25.2456 12.8448 25.2937 12.8268C25.3448 12.8089 25.492 12.7765 25.6242 12.7585C25.7564 12.7369 25.9938 12.6973 26.1501 12.6686C26.3063 12.6398 26.706 12.5966 27.0365 12.575C27.8778 12.5139 28.1332 12.424 28.1813 12.1721C28.2324 11.8808 28.1002 11.6541 27.8388 11.5822C27.6855 11.539 27.6344 11.539 27.367 11.6038C27.2018 11.6398 26.9584 11.6901 26.8262 11.7117C26.6939 11.7333 26.4656 11.7765 26.3153 11.8016C26.1681 11.8304 25.8766 11.87 25.6693 11.8916C25.462 11.9095 25.2396 11.9455 25.1735 11.9635C24.9962 12.0139 24.6597 12.0067 24.5425 11.9491C24.4734 11.9131 24.4313 11.8628 24.4193 11.8016C24.3953 11.6793 24.4704 11.4743 24.5545 11.4419C24.5906 11.4311 24.6176 11.3951 24.6176 11.3664C24.6176 11.3376 24.6357 11.316 24.6567 11.316C24.6777 11.316 24.7468 11.2513 24.8129 11.1721C24.9301 11.0282 25.3358 10.7692 25.5191 10.7225C25.7414 10.6649 25.9638 10.4527 26.0479 10.2188C26.108 10.0462 26.102 9.94905 26.0179 9.82315C25.9458 9.71883 25.9397 9.71523 25.6783 9.71523C25.462 9.71523 25.3959 9.72962 25.3087 9.79077C25.2156 9.85912 25.0143 9.99222 24.7679 10.1505C24.7258 10.1793 24.6747 10.2009 24.6567 10.2009C24.6357 10.2009 24.6176 10.2152 24.6176 10.2332C24.6176 10.2512 24.5876 10.2764 24.5515 10.2872C24.4734 10.3124 24.2691 10.5354 24.0858 10.798C24.0197 10.8951 23.9085 11.0462 23.8424 11.1325C23.7763 11.2189 23.6801 11.3915 23.6291 11.5103C23.4668 11.8952 23.3767 12.0319 23.1964 12.1937C22.962 12.4024 22.8899 12.4312 22.5533 12.4671C21.8532 12.5427 21.1531 12.6973 20.9638 12.8197C20.9308 12.8376 20.8406 12.8664 20.7565 12.8808C20.6754 12.8952 20.5461 12.942 20.471 12.9815C20.3749 13.0355 20.2727 13.0571 20.1165 13.0607C19.9091 13.0607 19.8911 13.0535 19.822 12.9599C19.7829 12.906 19.7499 12.8232 19.7499 12.7765C19.7499 12.683 19.8911 12.3376 19.9933 12.1865C20.3989 11.5894 20.4981 11.4815 20.7354 11.3664C21.0149 11.2333 21.2823 10.8628 21.2823 10.6109C21.2823 10.4095 21.1201 10.2368 20.9338 10.2368C20.8496 10.2368 20.5912 10.3447 20.5912 10.3807C20.5912 10.4131 20.1886 10.7404 20.1465 10.7404C20.0864 10.7404 19.4945 11.4887 19.3502 11.7405C19.3232 11.7944 19.2841 11.9024 19.2661 11.9815C19.2481 12.0606 19.188 12.2045 19.1339 12.3052C18.9957 12.5571 18.8815 12.834 18.8064 13.1074C18.7042 13.4887 18.6411 13.5283 17.8929 13.7082C17.7727 13.737 17.6255 13.7945 17.5624 13.8341C17.2198 14.0499 16.8713 14.2298 16.7811 14.2298C16.676 14.2298 16.5648 14.1758 16.5287 14.1075C16.5167 14.0859 16.5047 14.0139 16.5047 13.9456C16.5047 13.8449 16.5348 13.7909 16.676 13.6254C16.8442 13.4276 16.8473 13.4204 16.9614 12.9384C17.0245 12.6686 17.1087 12.3664 17.1477 12.2693C17.2349 12.0534 17.3761 11.521 17.3761 11.4167C17.3761 11.3124 17.4933 10.8196 17.5474 10.6901C17.5714 10.6361 17.6435 10.521 17.7036 10.4383C17.7667 10.3591 17.8539 10.2152 17.8989 10.1253C18.0011 9.90948 18.1483 9.73322 18.2956 9.64688C18.3587 9.60731 18.4758 9.51378 18.554 9.43824C18.7343 9.26198 18.8725 9.19363 19.3322 9.04974C20.2547 8.76196 20.5702 8.71879 21.4055 8.77635L21.8743 8.80872L22.0666 8.68642C22.2739 8.55692 22.4121 8.4454 22.5564 8.28352C22.7186 8.10726 22.947 7.97416 23.2535 7.88063C23.4157 7.82667 23.5539 7.77991 23.563 7.76912C23.602 7.72235 23.9746 7.76552 24.212 7.84826ZM18.9807 7.81229C19.0498 7.84466 19.0978 8.0497 19.0588 8.16841C19.0137 8.30871 18.9145 8.39504 18.7373 8.43821C18.3677 8.53173 18.1724 8.28712 18.4067 8.01373C18.554 7.84106 18.8334 7.74394 18.9807 7.81229ZM5.69348 8.01013C5.73254 8.02812 5.82268 8.14683 5.8978 8.26554C5.97292 8.38785 6.07809 8.54612 6.13518 8.61447C6.19227 8.68642 6.27941 8.84829 6.32749 8.97779C6.37857 9.10729 6.4627 9.27636 6.51379 9.3555C6.62196 9.51738 6.74816 9.85192 6.79924 10.0929C6.81727 10.1829 6.84131 10.5426 6.85032 10.8951C6.86535 11.4347 6.85934 11.5678 6.81727 11.7621C6.7121 12.2261 6.53482 12.2621 6.35453 11.8556C6.2704 11.6649 6.02701 11.2477 5.85574 11.003C5.78963 10.9095 5.30887 10.3519 5.2067 10.2512C4.8882 9.93466 4.8882 9.85552 5.2037 8.86268C5.23976 8.75117 5.28182 8.56771 5.29685 8.449C5.32689 8.22237 5.396 8.08568 5.51019 8.01733C5.59733 7.95977 5.60634 7.95977 5.69348 8.01013ZM11.0059 8.13604C11.1051 8.25115 11.1382 8.4454 11.1742 9.12168C11.1922 9.47062 11.1472 9.6181 10.9819 9.7548C10.8978 9.82674 10.8467 9.83034 10.444 9.83034C9.93624 9.83034 9.84309 9.79797 9.71389 9.56774C9.60571 9.37349 9.61172 9.00297 9.7259 8.74037C9.83708 8.48497 10.0354 8.25475 10.2608 8.11805C10.435 8.01373 10.4711 8.00294 10.6814 8.01373C10.8948 8.02452 10.9218 8.03531 11.0059 8.13604ZM13.8996 9.16845C13.9536 9.19723 14.0708 9.30155 14.161 9.40587C14.3202 9.58933 14.5276 9.73321 14.6267 9.73321C14.6718 9.73321 14.9422 10.0354 14.9422 10.0893C14.9422 10.1037 14.9963 10.1613 15.0624 10.2224C15.1315 10.28 15.2337 10.3699 15.2938 10.4275C15.3539 10.4814 15.465 10.5462 15.5402 10.575C15.9458 10.7225 16.3184 11.003 16.4116 11.2297C16.5408 11.5498 16.4807 11.7477 16.1892 11.9455C16.1081 12.0031 16.0149 12.0822 15.9879 12.1218C15.9218 12.2153 15.9188 12.3808 15.9789 12.5499C16.051 12.7585 16.039 12.924 15.9368 13.0463C15.7806 13.2297 15.6153 13.1722 15.3118 12.8268C15.2157 12.7153 15.0774 12.575 15.0023 12.5139C14.8461 12.3808 14.7649 12.2873 14.6417 12.0894C14.4945 11.8556 14.4404 11.7872 14.2842 11.6398C14.203 11.5606 14.1159 11.4599 14.0949 11.4095C14.0348 11.2764 13.8034 10.8088 13.7403 10.6865C13.6532 10.5282 13.6592 10.5498 13.533 9.99222C13.4158 9.48141 13.4128 9.39148 13.4909 9.24039C13.554 9.12168 13.7403 9.08931 13.8996 9.16845ZM2.98917 9.70084C3.05227 9.71883 3.2566 9.83753 3.43989 9.96344C3.62618 10.0893 3.84854 10.2188 3.92967 10.2548C4.0138 10.2908 4.14902 10.3879 4.23616 10.4671C4.32029 10.5498 4.46452 10.6685 4.55767 10.7368C4.75899 10.8879 5.28483 11.4887 5.40502 11.7117C5.50418 11.8952 5.49516 11.8808 5.65742 12.1326C5.72353 12.2369 5.80466 12.4024 5.8347 12.4959C5.94288 12.8233 6.16824 14.0787 6.16824 14.3521C6.16824 14.6794 5.98795 14.6578 5.84071 14.3125C5.79264 14.1974 5.7055 14.0535 5.64841 13.9888C5.5823 13.9168 5.52521 13.7981 5.48314 13.647C5.44709 13.5211 5.39 13.3233 5.35694 13.2046C5.28483 12.9456 5.23074 12.8304 5.0805 12.593C5.0174 12.4959 4.96632 12.3952 4.96632 12.37C4.96632 12.2981 4.31128 11.5067 4.16404 11.4059C4.0769 11.3448 3.96573 11.3016 3.85755 11.2908C3.70431 11.2728 3.67727 11.28 3.59614 11.3628C3.52102 11.4419 3.509 11.4779 3.509 11.6434C3.509 11.8268 3.512 11.834 3.67126 11.9959C4.02582 12.352 4.33832 12.7693 4.43447 13.0067C4.48555 13.1362 4.56969 13.3053 4.62377 13.3844C4.765 13.6003 4.96632 14.2334 4.96632 14.4708C4.96632 14.6327 4.9543 14.6794 4.8882 14.7514C4.7049 14.9528 4.40743 14.8773 4.12798 14.5535C4.03484 14.442 3.89361 14.2981 3.81549 14.2334C3.66224 14.1075 3.56609 13.9672 3.46693 13.737C3.43388 13.6542 3.35575 13.5247 3.29566 13.4492C3.16044 13.2801 2.96513 12.7909 2.93809 12.5535C2.92607 12.4563 2.89302 12.3196 2.86297 12.2513C2.77583 12.0462 2.56249 10.9347 2.56249 10.6973C2.56249 10.6433 2.53545 10.5138 2.5054 10.4095C2.3822 10.0102 2.39122 9.80516 2.52643 9.71523C2.62259 9.65408 2.83292 9.64688 2.98917 9.70084ZM10.9609 10.8448C11.1502 10.9707 11.1472 10.9671 11.1291 12.9096L11.1111 14.6686L10.9999 14.7909L10.8858 14.9133H8.9687H7.05164L6.97352 14.8125C6.84431 14.6507 6.81126 14.4528 6.85633 14.0931C6.89239 13.7729 6.97352 13.5355 7.12376 13.2765C7.21991 13.1146 7.29503 12.8844 7.35813 12.5427C7.38217 12.4168 7.41823 12.2801 7.43626 12.2369C7.48433 12.1326 7.55044 11.7441 7.57748 11.4239C7.5895 11.2728 7.61053 11.1289 7.62556 11.1002C7.69166 10.9743 7.75476 10.9059 7.88096 10.834C8.01318 10.7584 8.04022 10.7584 9.44345 10.7692C10.7205 10.78 10.8797 10.7872 10.9609 10.8448ZM12.0336 12.665C12.0967 12.7333 12.1988 12.8197 12.2619 12.8592C12.325 12.8988 12.4122 12.9923 12.4512 13.0679C12.4933 13.1434 12.5774 13.2945 12.6345 13.4024C12.7908 13.6902 12.9951 13.9636 13.3437 14.3521C13.4849 14.5068 13.5059 14.6363 13.4188 14.7586C13.3166 14.8953 13.2445 14.9133 12.7848 14.9133C12.28 14.9133 12.0847 14.8629 11.9284 14.701L11.8353 14.5967L11.8263 13.6686C11.8202 12.6937 11.8293 12.5391 11.8894 12.5391C11.9074 12.5391 11.9735 12.5966 12.0336 12.665ZM23.6441 13.4132C23.8514 13.6362 24.194 13.9708 24.3622 14.1111C24.4133 14.1506 24.5545 14.2226 24.6777 14.2657C25.0263 14.3952 25.1885 14.5032 25.1885 14.6039C25.1885 14.7154 25.1525 14.7442 24.9151 14.8413C24.7198 14.9168 24.7048 14.9204 23.1423 14.9025C21.703 14.8881 21.5467 14.8809 21.3244 14.8161C21.1922 14.7766 21.0209 14.701 20.9488 14.6471C20.456 14.2837 20.3899 14.2262 20.3088 14.0751C20.2637 13.996 20.2607 13.9672 20.2937 13.9204C20.3749 13.8017 20.5131 13.7549 20.8857 13.7226C21.3364 13.683 21.8743 13.5895 21.9584 13.5355C21.9914 13.5139 22.0996 13.4779 22.1988 13.4528C22.2979 13.4276 22.4602 13.3808 22.5594 13.352C23.0131 13.2154 23.1122 13.1938 23.2685 13.1902C23.4368 13.1866 23.4398 13.1902 23.6441 13.4132ZM19.176 14.3305C19.2331 14.3629 19.3052 14.4348 19.3382 14.4852C19.3893 14.5715 19.3923 14.5931 19.3562 14.683C19.2661 14.9061 18.9356 14.9744 18.5179 14.8557C18.2775 14.7909 18.1874 14.7226 18.1874 14.6111C18.1874 14.4924 18.2986 14.4168 18.587 14.3377C18.9025 14.2514 19.0498 14.2514 19.176 14.3305ZM27.4451 15.9996C27.5203 16.0536 27.6104 16.1363 27.6435 16.1795C27.7366 16.3018 27.7817 16.5392 27.7426 16.7047C27.7005 16.8881 27.6855 16.9061 27.5323 17.0033L27.3971 17.0896L18.554 17.0968C12.4332 17.104 7.05765 17.0867 6.97352 17.1119C6.63698 17.2234 6.18326 17.5343 6.51379 17.7286C6.69407 17.8329 6.84131 17.998 6.97352 17.9656C7.0216 17.9548 14.1309 17.9709 18.7944 17.9709C26.8863 17.9673 27.2709 17.9709 27.3099 18.0321C27.4391 18.2371 27.388 18.6148 27.1747 18.9961C27.0906 19.1436 26.9944 19.3307 26.9614 19.4134C26.9253 19.4961 26.8382 19.64 26.7661 19.73C26.6969 19.8199 26.5768 20.0105 26.5016 20.1508C26.4265 20.2911 26.3213 20.4458 26.2643 20.489C26.2102 20.5357 26.09 20.6652 25.9998 20.7732C25.9097 20.8847 25.7805 21.025 25.7144 21.0825C25.6483 21.1401 25.5161 21.2732 25.4229 21.3739C25.3298 21.4746 25.1885 21.5969 25.1074 21.6401C25.0293 21.6869 24.8971 21.7876 24.816 21.8631C24.7348 21.9387 24.6567 21.9998 24.6447 21.9998C24.6297 21.9998 24.6176 22.0214 24.6176 22.0466C24.6176 22.0718 24.5816 22.1113 24.5365 22.1365C24.4884 22.1581 24.4133 22.2085 24.3622 22.2444C24.3141 22.2804 24.212 22.338 24.1369 22.3739C24.0617 22.4099 23.9476 22.4926 23.8815 22.5574C23.7432 22.6905 23.578 22.7876 23.2535 22.9171C23.1243 22.9675 22.956 23.0646 22.8779 23.133C22.7967 23.2013 22.7156 23.2589 22.6976 23.2589C22.6765 23.2589 22.6134 23.2876 22.5503 23.3272C22.4902 23.3632 22.3791 23.4064 22.3039 23.4207C22.0576 23.4711 21.6489 23.6402 21.4927 23.7625C21.3755 23.8524 20.8586 24.0071 20.2787 24.1258C20.1826 24.1438 20.0744 24.1798 20.0413 24.1977C20.0083 24.2193 19.9121 24.2517 19.828 24.2661C19.7439 24.2805 19.5876 24.3201 19.4794 24.3488C18.8785 24.5251 18.3076 24.6078 17.286 24.6618C16.9314 24.6834 16.4566 24.7157 16.2313 24.7337C15.7144 24.7805 15.2727 24.7805 14.777 24.7337C14.5636 24.7157 14.0798 24.6834 13.7072 24.6618C12.7187 24.6114 11.9104 24.4891 11.3815 24.3201C11.3004 24.2949 11.1652 24.2553 11.0811 24.2337C10.9999 24.2157 10.8166 24.1654 10.6754 24.1258C10.5342 24.0862 10.3329 24.0359 10.2247 24.0107C9.92723 23.9495 9.56365 23.8164 9.41341 23.7157C9.26918 23.6186 8.87555 23.4603 8.68024 23.4171C8.533 23.3848 8.19947 23.2085 8.07027 23.0934C8.01618 23.043 7.86594 22.9639 7.73974 22.9135C7.43325 22.7948 7.26498 22.6941 7.09972 22.5394C7.0246 22.4675 6.88037 22.3703 6.77821 22.3272C6.67905 22.2804 6.57088 22.2229 6.53782 22.1941C6.50778 22.1653 6.39059 22.0538 6.2734 21.9423C6.15922 21.8308 6.00898 21.712 5.94288 21.6725C5.77461 21.5789 5.72052 21.5322 5.59733 21.3847C5.54023 21.3128 5.41403 21.1868 5.32089 21.1077C5.22774 21.025 5.06548 20.8559 4.96031 20.7336C4.85514 20.6077 4.71091 20.4422 4.6418 20.3667C4.57269 20.2875 4.49156 20.1724 4.46753 20.1041C4.44048 20.0393 4.34733 19.8882 4.25719 19.7695C4.16705 19.6508 4.0739 19.4997 4.04686 19.435C4.01981 19.3738 3.91765 19.1652 3.8215 18.9709C3.68929 18.7155 3.6382 18.5788 3.62318 18.4457C3.60215 18.2263 3.65323 18.0285 3.74337 17.9853C3.77943 17.9673 4.47954 17.9601 5.37197 17.9709C6.23134 17.9817 6.97953 17.9745 7.03361 17.9601C7.0877 17.9421 7.18686 17.8738 7.24996 17.8018C7.45729 17.5824 7.44227 17.3162 7.2139 17.1759C7.0847 17.0968 7.0847 17.0968 5.41403 17.104C4.21512 17.1112 3.70431 17.1004 3.61116 17.0716C3.53905 17.0464 3.43989 16.9781 3.37979 16.9061C3.27763 16.7838 3.27763 16.7766 3.28965 16.5284C3.30167 16.2874 3.30768 16.2694 3.41885 16.1399C3.48496 16.0644 3.58111 15.978 3.62919 15.9457C3.71332 15.8917 4.67486 15.8881 15.5131 15.8953L27.3069 15.9025L27.4451 15.9996ZM19.6808 25.2913C19.819 25.4028 19.807 25.8453 19.6597 26.0395L19.5756 26.1546H15.5221C12.2319 26.1546 11.4597 26.1475 11.4026 26.1079C11.2824 26.0251 11.2163 25.8525 11.2163 25.6223C11.2163 25.3345 11.2944 25.2373 11.5228 25.2373C11.8443 25.2409 12.6736 25.3956 12.8689 25.4892C13.1934 25.6474 13.4098 25.7014 13.8455 25.741C14.0949 25.7625 14.4104 25.7949 14.5516 25.8129C15.3388 25.91 17.3671 25.7877 17.8268 25.6151C17.95 25.5683 18.0942 25.5071 18.1423 25.4748C18.1934 25.4424 18.2655 25.4172 18.3076 25.4172C18.3496 25.4172 18.4909 25.392 18.6231 25.3633C19.3472 25.1978 19.5425 25.187 19.6808 25.2913Z" fill="black"/>
<path d="M14.774 10.6289C14.6688 10.6829 14.5877 10.8376 14.5666 11.0282C14.5276 11.3664 14.6568 11.4923 15.0534 11.5066C15.2607 11.5138 15.3389 11.4599 15.411 11.2548C15.456 11.1289 15.4651 10.8232 15.429 10.7476C15.3779 10.6541 14.8972 10.5678 14.774 10.6289Z" fill="black"/>
</svg>
